<svg width="238.01" height="228.75" xmlns="http://www.w3.org/2000/svg">

 <g>
  <title>Layer 1</title>
  <g data-name="Layer 2" id="Layer_2">
   <g data-name="Layer 1" id="Layer_1-2">
    <path id="svg_1" stroke-width="10px" stroke-miterlimit="10" stroke="#000" d="m184.07,224.75l-66.94,0l0,-62.9c-0.09,-0.95 -0.73,-4.94 -5,-4.94l-31.91,0c-0.73,0 -4.48,0.22 -4.48,3.49l0,64.35l-21.17,0c-0.18,0 -17.75,-0.23 -17.75,-20.46l0,-62.35l-14.92,0l-0.42,-0.16c-0.52,-0.19 -12.58,-4.81 -16.36,-15c-2,-5.42 -1.31,-11.29 2.07,-17.45l0.17,-0.3l98.2,-100.23l0.21,-0.14c0.61,-0.41 15,-9.84 28.52,0.06c12.29,9 91.05,90.6 94.4,94.07l0.18,0.19l0.14,0.22c0.31,0.5 7.67,12.47 4,23.47c-2,5.93 -6.78,10.35 -14.18,13.12l-0.42,0.16l-15.5,0l-0.41,67.52l0,0.17c-0.79,5.52 -5.62,16.2 -18.26,17.11l-0.17,0zm-161.23,-87.81l19,0l0,67.35c0,14.9 11.45,15.45 12.76,15.46l16.14,0l0,-59.35c0,-6.23 5.67,-8.49 9.48,-8.49l31.93,0c7.37,0 9.75,6.32 10,9.67l0,58.17l61.76,0c11.08,-0.84 13.3,-11.22 13.56,-12.67l0.44,-72.13l19.55,0c5.68,-2.22 9.3,-5.54 10.77,-9.87c2.75,-8 -2.45,-17.52 -3.32,-19c-4.52,-4.68 -81.9,-84.76 -93.55,-93.3c-10,-7.34 -20.93,-1.09 -22.59,-0.06l-97.36,99.28c-2.51,4.7 -3.05,9.07 -1.61,13c2.64,7.16 11.12,11.12 13.04,11.94zm190.8,-70l-34,-33.52l0,-29.42l33.94,0l0.06,62.94zm-29,-35.61l24,23.65l-0.06,-46l-23.95,0l0.01,22.35z" class="cls-1"/>
   </g>
  </g>
 </g>
</svg>